<?xml version="1.0" encoding="UTF-8" standalone="no"?>
<!DOCTYPE svg PUBLIC "-//W3C//DTD SVG 1.1//EN"
 "http://www.w3.org/Graphics/SVG/1.1/DTD/svg11.dtd">
<!-- Generated by graphviz version 2.43.0 (0)
 -->
<!-- Title: snakemake_dag Pages: 1 -->
<svg width="1082pt" height="476pt"
 viewBox="0.00 0.00 1081.50 476.00" xmlns="http://www.w3.org/2000/svg" xmlns:xlink="http://www.w3.org/1999/xlink">
<g id="graph0" class="graph" transform="scale(1 1) rotate(0) translate(4 472)">
<title>snakemake_dag</title>
<!-- 0 -->
<g id="node1" class="node">
<title>0</title>
<path fill="white" stroke="#d85656" stroke-width="2" d="M756.5,-36C756.5,-36 726.5,-36 726.5,-36 720.5,-36 714.5,-30 714.5,-24 714.5,-24 714.5,-12 714.5,-12 714.5,-6 720.5,0 726.5,0 726.5,0 756.5,0 756.5,0 762.5,0 768.5,-6 768.5,-12 768.5,-12 768.5,-24 768.5,-24 768.5,-30 762.5,-36 756.5,-36"/>
<text text-anchor="middle" x="741.5" y="-15.5" font-family="sans" font-size="10.00">all</text>
</g>
<!-- 1 -->
<g id="node2" class="node">
<title>1</title>
<path fill="white" stroke="#d87556" stroke-width="2" d="M499.5,-180C499.5,-180 255.5,-180 255.5,-180 249.5,-180 243.5,-174 243.5,-168 243.5,-168 243.5,-156 243.5,-156 243.5,-150 249.5,-144 255.5,-144 255.5,-144 499.5,-144 499.5,-144 505.5,-144 511.5,-150 511.5,-156 511.5,-156 511.5,-168 511.5,-168 511.5,-174 505.5,-180 499.5,-180"/>
<text text-anchor="middle" x="377.5" y="-159.5" font-family="sans" font-size="10.00">create_clonal_prev_summary_table_and_tree_plots</text>
</g>
<!-- 1&#45;&gt;0 -->
<g id="edge3" class="edge">
<title>1&#45;&gt;0</title>
<path fill="none" stroke="grey" stroke-width="2" d="M510.92,-143.96C604.2,-131.49 713.5,-115.48 721.5,-108 738.18,-92.42 742.42,-66.18 742.94,-46.22"/>
<polygon fill="grey" stroke="grey" stroke-width="2" points="746.44,-46.15 742.91,-36.16 739.44,-46.17 746.44,-46.15"/>
</g>
<!-- 7 -->
<g id="node8" class="node">
<title>7</title>
<path fill="white" stroke="#56d87b" stroke-width="2" d="M247.5,-108C247.5,-108 79.5,-108 79.5,-108 73.5,-108 67.5,-102 67.5,-96 67.5,-96 67.5,-84 67.5,-84 67.5,-78 73.5,-72 79.5,-72 79.5,-72 247.5,-72 247.5,-72 253.5,-72 259.5,-78 259.5,-84 259.5,-84 259.5,-96 259.5,-96 259.5,-102 253.5,-108 247.5,-108"/>
<text text-anchor="middle" x="163.5" y="-87.5" font-family="sans" font-size="10.00">create_sample_error_bars_tree_plot</text>
</g>
<!-- 1&#45;&gt;7 -->
<g id="edge16" class="edge">
<title>1&#45;&gt;7</title>
<path fill="none" stroke="grey" stroke-width="2" d="M325.42,-143.97C295.26,-134.1 257.11,-121.62 225.42,-111.25"/>
<polygon fill="grey" stroke="grey" stroke-width="2" points="226.4,-107.89 215.81,-108.11 224.23,-114.55 226.4,-107.89"/>
</g>
<!-- 12 -->
<g id="node13" class="node">
<title>12</title>
<path fill="white" stroke="#d6d856" stroke-width="2" d="M465.5,-108C465.5,-108 289.5,-108 289.5,-108 283.5,-108 277.5,-102 277.5,-96 277.5,-96 277.5,-84 277.5,-84 277.5,-78 283.5,-72 289.5,-72 289.5,-72 465.5,-72 465.5,-72 471.5,-72 477.5,-78 477.5,-84 477.5,-84 477.5,-96 477.5,-96 477.5,-102 471.5,-108 465.5,-108"/>
<text text-anchor="middle" x="377.5" y="-87.5" font-family="sans" font-size="10.00">create_gathered_error_bars_tree_plot</text>
</g>
<!-- 1&#45;&gt;12 -->
<g id="edge24" class="edge">
<title>1&#45;&gt;12</title>
<path fill="none" stroke="grey" stroke-width="2" d="M377.5,-143.7C377.5,-135.98 377.5,-126.71 377.5,-118.11"/>
<polygon fill="grey" stroke="grey" stroke-width="2" points="381,-118.1 377.5,-108.1 374,-118.1 381,-118.1"/>
</g>
<!-- 13 -->
<g id="node14" class="node">
<title>13</title>
<path fill="white" stroke="#d8b456" stroke-width="2" d="M701,-108C701,-108 508,-108 508,-108 502,-108 496,-102 496,-96 496,-96 496,-84 496,-84 496,-78 502,-72 508,-72 508,-72 701,-72 701,-72 707,-72 713,-78 713,-84 713,-84 713,-96 713,-96 713,-102 707,-108 701,-108"/>
<text text-anchor="middle" x="604.5" y="-87.5" font-family="sans" font-size="10.00">create_gathered_clonal_prev_stats_table</text>
</g>
<!-- 1&#45;&gt;13 -->
<g id="edge25" class="edge">
<title>1&#45;&gt;13</title>
<path fill="none" stroke="grey" stroke-width="2" d="M432.74,-143.97C464.87,-134.06 505.55,-121.51 539.25,-111.12"/>
<polygon fill="grey" stroke="grey" stroke-width="2" points="540.49,-114.4 549.01,-108.11 538.42,-107.71 540.49,-114.4"/>
</g>
<!-- 2 -->
<g id="node3" class="node">
<title>2</title>
<path fill="white" stroke="#d89556" stroke-width="2" d="M709.5,-252C709.5,-252 497.5,-252 497.5,-252 491.5,-252 485.5,-246 485.5,-240 485.5,-240 485.5,-228 485.5,-228 485.5,-222 491.5,-216 497.5,-216 497.5,-216 709.5,-216 709.5,-216 715.5,-216 721.5,-222 721.5,-228 721.5,-228 721.5,-240 721.5,-240 721.5,-246 715.5,-252 709.5,-252"/>
<text text-anchor="middle" x="603.5" y="-231.5" font-family="sans" font-size="10.00">create_clonal_rho_table_from_cfClone_result</text>
</g>
<!-- 2&#45;&gt;1 -->
<g id="edge11" class="edge">
<title>2&#45;&gt;1</title>
<path fill="none" stroke="grey" stroke-width="2" d="M548.5,-215.97C516.51,-206.06 476.02,-193.51 442.46,-183.12"/>
<polygon fill="grey" stroke="grey" stroke-width="2" points="443.33,-179.73 432.74,-180.11 441.26,-186.41 443.33,-179.73"/>
</g>
<!-- 10 -->
<g id="node11" class="node">
<title>10</title>
<path fill="white" stroke="#56d8b9" stroke-width="2" d="M735.5,-180C735.5,-180 541.5,-180 541.5,-180 535.5,-180 529.5,-174 529.5,-168 529.5,-168 529.5,-156 529.5,-156 529.5,-150 535.5,-144 541.5,-144 541.5,-144 735.5,-144 735.5,-144 741.5,-144 747.5,-150 747.5,-156 747.5,-156 747.5,-168 747.5,-168 747.5,-174 741.5,-180 735.5,-180"/>
<text text-anchor="middle" x="638.5" y="-159.5" font-family="sans" font-size="10.00">create_sample_rho_dominance_heatmap</text>
</g>
<!-- 2&#45;&gt;10 -->
<g id="edge21" class="edge">
<title>2&#45;&gt;10</title>
<path fill="none" stroke="grey" stroke-width="2" d="M612.15,-215.7C616.14,-207.73 620.95,-198.1 625.37,-189.26"/>
<polygon fill="grey" stroke="grey" stroke-width="2" points="628.61,-190.61 629.95,-180.1 622.35,-187.48 628.61,-190.61"/>
</g>
<!-- 15 -->
<g id="node16" class="node">
<title>15</title>
<path fill="white" stroke="#97d856" stroke-width="2" d="M213,-180C213,-180 12,-180 12,-180 6,-180 0,-174 0,-168 0,-168 0,-156 0,-156 0,-150 6,-144 12,-144 12,-144 213,-144 213,-144 219,-144 225,-150 225,-156 225,-156 225,-168 225,-168 225,-174 219,-180 213,-180"/>
<text text-anchor="middle" x="112.5" y="-159.5" font-family="sans" font-size="10.00">create_gathered_rho_dominance_heatmap</text>
</g>
<!-- 2&#45;&gt;15 -->
<g id="edge27" class="edge">
<title>2&#45;&gt;15</title>
<path fill="none" stroke="grey" stroke-width="2" d="M485.27,-216.14C409.64,-205.36 311.73,-191.4 235.24,-180.5"/>
<polygon fill="grey" stroke="grey" stroke-width="2" points="235.46,-176.99 225.07,-179.05 234.47,-183.92 235.46,-176.99"/>
</g>
<!-- 3 -->
<g id="node4" class="node">
<title>3</title>
<path fill="white" stroke="#569ad8" stroke-width="2" d="M839,-324C839,-324 790,-324 790,-324 784,-324 778,-318 778,-312 778,-312 778,-300 778,-300 778,-294 784,-288 790,-288 790,-288 839,-288 839,-288 845,-288 851,-294 851,-300 851,-300 851,-312 851,-312 851,-318 845,-324 839,-324"/>
<text text-anchor="middle" x="814.5" y="-303.5" font-family="sans" font-size="10.00">run_cfclone</text>
</g>
<!-- 3&#45;&gt;2 -->
<g id="edge12" class="edge">
<title>3&#45;&gt;2</title>
<path fill="none" stroke="grey" stroke-width="2" d="M777.75,-292.81C746.53,-282.45 701.09,-267.38 664.44,-255.22"/>
<polygon fill="grey" stroke="grey" stroke-width="2" points="665.44,-251.86 654.85,-252.03 663.24,-258.51 665.44,-251.86"/>
</g>
<!-- 9 -->
<g id="node10" class="node">
<title>9</title>
<path fill="white" stroke="#78d856" stroke-width="2" d="M983.5,-252C983.5,-252 789.5,-252 789.5,-252 783.5,-252 777.5,-246 777.5,-240 777.5,-240 777.5,-228 777.5,-228 777.5,-222 783.5,-216 789.5,-216 789.5,-216 983.5,-216 983.5,-216 989.5,-216 995.5,-222 995.5,-228 995.5,-228 995.5,-240 995.5,-240 995.5,-246 989.5,-252 983.5,-252"/>
<text text-anchor="middle" x="886.5" y="-231.5" font-family="sans" font-size="10.00">create_mu_p_tables_from_cfClone_result</text>
</g>
<!-- 3&#45;&gt;9 -->
<g id="edge19" class="edge">
<title>3&#45;&gt;9</title>
<path fill="none" stroke="grey" stroke-width="2" d="M832.3,-287.7C841.1,-279.14 851.88,-268.66 861.5,-259.3"/>
<polygon fill="grey" stroke="grey" stroke-width="2" points="864.18,-261.58 868.91,-252.1 859.3,-256.57 864.18,-261.58"/>
</g>
<!-- 4 -->
<g id="node5" class="node">
<title>4</title>
<path fill="white" stroke="#59d856" stroke-width="2" d="M863.5,-396C863.5,-396 701.5,-396 701.5,-396 695.5,-396 689.5,-390 689.5,-384 689.5,-384 689.5,-372 689.5,-372 689.5,-366 695.5,-360 701.5,-360 701.5,-360 863.5,-360 863.5,-360 869.5,-360 875.5,-366 875.5,-372 875.5,-372 875.5,-384 875.5,-384 875.5,-390 869.5,-396 863.5,-396"/>
<text text-anchor="middle" x="782.5" y="-375.5" font-family="sans" font-size="10.00">create_sample_cfClone_input_files</text>
</g>
<!-- 4&#45;&gt;3 -->
<g id="edge13" class="edge">
<title>4&#45;&gt;3</title>
<path fill="none" stroke="grey" stroke-width="2" d="M790.41,-359.7C794.05,-351.73 798.45,-342.1 802.49,-333.26"/>
<polygon fill="grey" stroke="grey" stroke-width="2" points="805.71,-334.65 806.68,-324.1 799.34,-331.74 805.71,-334.65"/>
</g>
<!-- 8 -->
<g id="node9" class="node">
<title>8</title>
<path fill="white" stroke="#56d89a" stroke-width="2" d="M881.5,-180C881.5,-180 777.5,-180 777.5,-180 771.5,-180 765.5,-174 765.5,-168 765.5,-168 765.5,-156 765.5,-156 765.5,-150 771.5,-144 777.5,-144 777.5,-144 881.5,-144 881.5,-144 887.5,-144 893.5,-150 893.5,-156 893.5,-156 893.5,-168 893.5,-168 893.5,-174 887.5,-180 881.5,-180"/>
<text text-anchor="middle" x="829.5" y="-159.5" font-family="sans" font-size="10.00">create_sample_fit_plot</text>
</g>
<!-- 4&#45;&gt;8 -->
<g id="edge17" class="edge">
<title>4&#45;&gt;8</title>
<path fill="none" stroke="grey" stroke-width="2" d="M775.61,-359.6C764.62,-329.01 746.5,-264.25 768.5,-216 773.73,-204.53 782.8,-194.58 792.37,-186.5"/>
<polygon fill="grey" stroke="grey" stroke-width="2" points="794.75,-189.09 800.46,-180.16 790.43,-183.58 794.75,-189.09"/>
</g>
<!-- 11 -->
<g id="node12" class="node">
<title>11</title>
<path fill="white" stroke="#b6d856" stroke-width="2" d="M1061.5,-180C1061.5,-180 945.5,-180 945.5,-180 939.5,-180 933.5,-174 933.5,-168 933.5,-168 933.5,-156 933.5,-156 933.5,-150 939.5,-144 945.5,-144 945.5,-144 1061.5,-144 1061.5,-144 1067.5,-144 1073.5,-150 1073.5,-156 1073.5,-156 1073.5,-168 1073.5,-168 1073.5,-174 1067.5,-180 1061.5,-180"/>
<text text-anchor="middle" x="1003.5" y="-159.5" font-family="sans" font-size="10.00">create_gathered_fits_plot</text>
</g>
<!-- 4&#45;&gt;11 -->
<g id="edge22" class="edge">
<title>4&#45;&gt;11</title>
<path fill="none" stroke="grey" stroke-width="2" d="M847.94,-359.92C900.55,-342.35 971.02,-309.28 1004.5,-252 1015.37,-233.4 1014.11,-208.67 1010.7,-189.99"/>
<polygon fill="grey" stroke="grey" stroke-width="2" points="1014.09,-189.11 1008.58,-180.05 1007.24,-190.56 1014.09,-189.11"/>
</g>
<!-- 5 -->
<g id="node6" class="node">
<title>5</title>
<path fill="white" stroke="#56d8d8" stroke-width="2" d="M621,-468C621,-468 486,-468 486,-468 480,-468 474,-462 474,-456 474,-456 474,-444 474,-444 474,-438 480,-432 486,-432 486,-432 621,-432 621,-432 627,-432 633,-438 633,-444 633,-444 633,-456 633,-456 633,-462 627,-468 621,-468"/>
<text text-anchor="middle" x="553.5" y="-447.5" font-family="sans" font-size="10.00">format_cn_profiles_from_bed</text>
</g>
<!-- 5&#45;&gt;4 -->
<g id="edge14" class="edge">
<title>5&#45;&gt;4</title>
<path fill="none" stroke="grey" stroke-width="2" d="M609.23,-431.97C641.64,-422.06 682.68,-409.51 716.68,-399.12"/>
<polygon fill="grey" stroke="grey" stroke-width="2" points="717.98,-402.38 726.52,-396.11 715.94,-395.69 717.98,-402.38"/>
</g>
<!-- 6 -->
<g id="node7" class="node">
<title>6</title>
<path fill="white" stroke="#56b9d8" stroke-width="2" d="M455,-252C455,-252 258,-252 258,-252 252,-252 246,-246 246,-240 246,-240 246,-228 246,-228 246,-222 252,-216 258,-216 258,-216 455,-216 455,-216 461,-216 467,-222 467,-228 467,-228 467,-240 467,-240 467,-246 461,-252 455,-252"/>
<text text-anchor="middle" x="356.5" y="-231.5" font-family="sans" font-size="10.00">preprocess_clone_tree_create_colour_dict</text>
</g>
<!-- 5&#45;&gt;6 -->
<g id="edge15" class="edge">
<title>5&#45;&gt;6</title>
<path fill="none" stroke="grey" stroke-width="2" d="M537.71,-431.85C502.91,-394.05 419.51,-303.45 379.15,-259.6"/>
<polygon fill="grey" stroke="grey" stroke-width="2" points="381.71,-257.22 372.36,-252.23 376.56,-261.96 381.71,-257.22"/>
</g>
<!-- 6&#45;&gt;1 -->
<g id="edge10" class="edge">
<title>6&#45;&gt;1</title>
<path fill="none" stroke="grey" stroke-width="2" d="M361.69,-215.7C364.03,-207.9 366.85,-198.51 369.45,-189.83"/>
<polygon fill="grey" stroke="grey" stroke-width="2" points="372.85,-190.69 372.37,-180.1 366.14,-188.68 372.85,-190.69"/>
</g>
<!-- 6&#45;&gt;10 -->
<g id="edge20" class="edge">
<title>6&#45;&gt;10</title>
<path fill="none" stroke="grey" stroke-width="2" d="M425.12,-215.97C465.81,-205.87 517.53,-193.03 559.86,-182.52"/>
<polygon fill="grey" stroke="grey" stroke-width="2" points="560.71,-185.92 569.57,-180.11 559.02,-179.12 560.71,-185.92"/>
</g>
<!-- 6&#45;&gt;15 -->
<g id="edge26" class="edge">
<title>6&#45;&gt;15</title>
<path fill="none" stroke="grey" stroke-width="2" d="M297.12,-215.97C262.44,-206.01 218.49,-193.41 182.17,-182.99"/>
<polygon fill="grey" stroke="grey" stroke-width="2" points="182.72,-179.5 172.14,-180.11 180.79,-186.23 182.72,-179.5"/>
</g>
<!-- 7&#45;&gt;0 -->
<g id="edge9" class="edge">
<title>7&#45;&gt;0</title>
<path fill="none" stroke="grey" stroke-width="2" d="M259.6,-73.25C262.6,-72.82 265.57,-72.4 268.5,-72 430.29,-49.85 624.17,-30.31 704.17,-22.56"/>
<polygon fill="grey" stroke="grey" stroke-width="2" points="704.63,-26.03 714.25,-21.58 703.96,-19.06 704.63,-26.03"/>
</g>
<!-- 8&#45;&gt;0 -->
<g id="edge6" class="edge">
<title>8&#45;&gt;0</title>
<path fill="none" stroke="grey" stroke-width="2" d="M824.8,-143.98C819.17,-125.33 808.57,-95 793.5,-72 786.72,-61.66 777.73,-51.63 769.12,-43.13"/>
<polygon fill="grey" stroke="grey" stroke-width="2" points="771.38,-40.45 761.73,-36.08 766.55,-45.51 771.38,-40.45"/>
</g>
<!-- 9&#45;&gt;8 -->
<g id="edge18" class="edge">
<title>9&#45;&gt;8</title>
<path fill="none" stroke="grey" stroke-width="2" d="M872.41,-215.7C865.58,-207.3 857.24,-197.07 849.74,-187.86"/>
<polygon fill="grey" stroke="grey" stroke-width="2" points="852.46,-185.65 843.43,-180.1 847.03,-190.07 852.46,-185.65"/>
</g>
<!-- 9&#45;&gt;11 -->
<g id="edge23" class="edge">
<title>9&#45;&gt;11</title>
<path fill="none" stroke="grey" stroke-width="2" d="M915.12,-215.88C930.42,-206.72 949.44,-195.34 965.92,-185.48"/>
<polygon fill="grey" stroke="grey" stroke-width="2" points="967.98,-188.33 974.77,-180.19 964.39,-182.32 967.98,-188.33"/>
</g>
<!-- 10&#45;&gt;0 -->
<g id="edge7" class="edge">
<title>10&#45;&gt;0</title>
<path fill="none" stroke="grey" stroke-width="2" d="M709.48,-143.92C727.52,-136.04 744.81,-124.59 755.5,-108 767.48,-89.42 761.96,-64.22 754.62,-45.38"/>
<polygon fill="grey" stroke="grey" stroke-width="2" points="757.83,-44 750.69,-36.17 751.39,-46.75 757.83,-44"/>
</g>
<!-- 11&#45;&gt;0 -->
<g id="edge4" class="edge">
<title>11&#45;&gt;0</title>
<path fill="none" stroke="grey" stroke-width="2" d="M1004.94,-143.71C1005.58,-123.65 1003.34,-90.92 984.5,-72 956.05,-43.42 839.75,-28.33 778.95,-22.26"/>
<polygon fill="grey" stroke="grey" stroke-width="2" points="778.91,-18.74 768.62,-21.26 778.24,-25.71 778.91,-18.74"/>
</g>
<!-- 12&#45;&gt;0 -->
<g id="edge1" class="edge">
<title>12&#45;&gt;0</title>
<path fill="none" stroke="grey" stroke-width="2" d="M466.08,-71.97C542.39,-57.29 648.77,-36.83 704.34,-26.15"/>
<polygon fill="grey" stroke="grey" stroke-width="2" points="705.27,-29.53 714.43,-24.21 703.95,-22.66 705.27,-29.53"/>
</g>
<!-- 13&#45;&gt;0 -->
<g id="edge5" class="edge">
<title>13&#45;&gt;0</title>
<path fill="none" stroke="grey" stroke-width="2" d="M638.01,-71.88C658.35,-61.49 684.3,-48.22 705.13,-37.58"/>
<polygon fill="grey" stroke="grey" stroke-width="2" points="706.99,-40.56 714.31,-32.9 703.81,-34.33 706.99,-40.56"/>
</g>
<!-- 14 -->
<g id="node15" class="node">
<title>14</title>
<path fill="white" stroke="#567bd8" stroke-width="2" d="M963.5,-108C963.5,-108 857.5,-108 857.5,-108 851.5,-108 845.5,-102 845.5,-96 845.5,-96 845.5,-84 845.5,-84 845.5,-78 851.5,-72 857.5,-72 857.5,-72 963.5,-72 963.5,-72 969.5,-72 975.5,-78 975.5,-84 975.5,-84 975.5,-96 975.5,-96 975.5,-102 969.5,-108 963.5,-108"/>
<text text-anchor="middle" x="910.5" y="-87.5" font-family="sans" font-size="10.00">save_run_configuration</text>
</g>
<!-- 14&#45;&gt;0 -->
<g id="edge2" class="edge">
<title>14&#45;&gt;0</title>
<path fill="none" stroke="grey" stroke-width="2" d="M869.16,-71.88C841.31,-60.34 804.91,-45.26 778.11,-34.16"/>
<polygon fill="grey" stroke="grey" stroke-width="2" points="779.28,-30.86 768.7,-30.27 776.6,-37.33 779.28,-30.86"/>
</g>
<!-- 15&#45;&gt;0 -->
<g id="edge8" class="edge">
<title>15&#45;&gt;0</title>
<path fill="none" stroke="grey" stroke-width="2" d="M89.61,-143.9C66.88,-124.9 38.12,-94.02 58.5,-72 102.54,-24.41 567.25,-19.44 703.91,-19.01"/>
<polygon fill="grey" stroke="grey" stroke-width="2" points="704.28,-22.51 714.27,-18.99 704.26,-15.51 704.28,-22.51"/>
</g>
</g>
</svg>
